# xmcd
#
# Track frame offsets:
#	150
#	24346
#	49793
#	63889
#	84824
#	100247
#	122245
#	139466
#	152240
#	170642
#	182649
#	196504
#	210126
#	234075
#	253960
#	273524
#	296657
#	316203
#	328442
#	344615
#
# Disc length: 4744 seconds
# Revision: 0
# Processed by: cddbd v1.5.2PL0 Copyright (c) Steve Scherf et al.
# Submitted via: dBpowerAMP V12.0
#
DISCID=22128614
DTITLE=Roland van Campenhout - Alle Veertig Goed
DYEAR=2012
DGENRE=Blues
TTITLE0=Lime In The Coconut
TTITLE1=Ballad Of John Harlow
TTITLE2=Hissing o' The Heath
TTITLE3=Fire In The Morning
TTITLE4=Ca Plane Pour Moi
TTITLE5=Sweet Little Taste
TTITLE6=Never Too Soon
TTITLE7=In My Time
TTITLE8=The Blues Before You Were Born
TTITLE9=Officer, Kiss Me Please
TTITLE10=Nice Wind On Anson Road
TTITLE11=Alberta
TTITLE12=The Truth
TTITLE13=Vilvoorde
TTITLE14=Believe No More
TTITLE15=Moonlight Lady
TTITLE16=The Love You Save
TTITLE17=Midnight Star
TTITLE18=Jambo Africa
TTITLE19=Comme Facetta Mammeta
EXTD=
EXTT0=
EXTT1=
EXTT2=
EXTT3=
EXTT4=
EXTT5=
EXTT6=
EXTT7=
EXTT8=
EXTT9=
EXTT10=
EXTT11=
EXTT12=
EXTT13=
EXTT14=
EXTT15=
EXTT16=
EXTT17=
EXTT18=
EXTT19=
PLAYORDER=
